HIERARCHY
ROOT Hips
{
	OFFSET 0.000000 71.427986 0.000000
	CHANNELS 6 Xposition Yposition Zposition Xrotation Yrotation Zrotation
	JOINT Pelvis
	{
		OFFSET 0.000000 0.000000 0.000000
		CHANNELS 3 Xrotation Yrotation Zrotation
		JOINT LeftUpLeg
		{
			OFFSET 6.797100 -2.508499 -1.318700
			CHANNELS 3 Xrotation Yrotation Zrotation
			JOINT LeftLeg
			{
				OFFSET 0.069008 -29.241863 0.690200
				CHANNELS 3 Xrotation Yrotation Zrotation
				JOINT LeftFoot
				{
					OFFSET -0.069008 -29.568123 -0.266800
					CHANNELS 3 Xrotation Yrotation Zrotation
					JOINT LeftToeBase
					{
						OFFSET 3.145500 -8.631000 16.059900
						CHANNELS 3 Xrotation Yrotation Zrotation
						End Site
						{
							OFFSET 0.000000 18.501587 0.000000
						}
					}
				}
			}
			JOINT Left_ShortSleeve
			{
				OFFSET 0.265923 -10.480953 1.153800
				CHANNELS 3 Xrotation Yrotation Zrotation
				End Site
				{
					OFFSET 1.725763 19.823879 0.000000
				}
			}
		}
		JOINT RightUpLeg
		{
			OFFSET -6.797100 -2.508499 -1.318700
			CHANNELS 3 Xrotation Yrotation Zrotation
			JOINT RightLeg
			{
				OFFSET -0.082453 -29.241932 0.688000
				CHANNELS 3 Xrotation Yrotation Zrotation
				JOINT RightFoot
				{
					OFFSET 0.082453 -29.568058 -0.264600
					CHANNELS 3 Xrotation Yrotation Zrotation
					JOINT RightToeBase
					{
						OFFSET -3.115300 -8.682800 16.113400
						CHANNELS 3 Xrotation Yrotation Zrotation
						End Site
						{
							OFFSET 0.000000 18.567114 0.000000
						}
					}
				}
			}
			JOINT Right_ShortSleeve
			{
				OFFSET -0.265923 -10.480953 1.153800
				CHANNELS 3 Xrotation Yrotation Zrotation
				End Site
				{
					OFFSET -1.725766 19.823910 0.000000
				}
			}
		}
	}
	JOINT Spine
	{
		OFFSET 0.000000 13.368103 0.470500
		CHANNELS 3 Xrotation Yrotation Zrotation
		JOINT Spine1
		{
			OFFSET 0.147000 13.837402 0.538800
			CHANNELS 3 Xrotation Yrotation Zrotation
			JOINT Spine2
			{
				OFFSET 0.168000 16.242897 -1.435500
				CHANNELS 3 Xrotation Yrotation Zrotation
				JOINT Neck
				{
					OFFSET 0.217200 18.631500 -1.679100
					CHANNELS 3 Xrotation Yrotation Zrotation
					JOINT Head
					{
						OFFSET 0.000000 6.599396 1.385900
						CHANNELS 3 Xrotation Yrotation Zrotation
						JOINT Hat
						{
							OFFSET -0.532200 27.220596 -10.096100
							CHANNELS 3 Xrotation Yrotation Zrotation
							End Site
							{
								OFFSET 0.000000 22.029861 0.000000
							}
						}
						JOINT HairD
						{
							OFFSET -10.777400 17.437393 -1.325900
							CHANNELS 3 Xrotation Yrotation Zrotation
							JOINT HairD1
							{
								OFFSET -3.290299 -11.051193 1.062200
								CHANNELS 3 Xrotation Yrotation Zrotation
								End Site
								{
									OFFSET 0.000000 11.579437 0.000000
								}
							}
						}
						JOINT HairB
						{
							OFFSET -10.777400 17.437393 1.467900
							CHANNELS 3 Xrotation Yrotation Zrotation
							JOINT HairB1
							{
								OFFSET -1.561200 -12.956299 3.590200
								CHANNELS 3 Xrotation Yrotation Zrotation
								End Site
								{
									OFFSET 0.000000 13.534866 0.000000
								}
							}
						}
						JOINT HairA
						{
							OFFSET 9.713100 17.437393 1.467900
							CHANNELS 3 Xrotation Yrotation Zrotation
							JOINT HairA1
							{
								OFFSET 1.561200 -12.956299 3.590200
								CHANNELS 3 Xrotation Yrotation Zrotation
								End Site
								{
									OFFSET 0.000000 13.534866 0.000000
								}
							}
						}
						JOINT HairC
						{
							OFFSET 9.713100 17.437393 -1.325900
							CHANNELS 3 Xrotation Yrotation Zrotation
							JOINT HairC1
							{
								OFFSET 3.290300 -11.051193 1.062200
								CHANNELS 3 Xrotation Yrotation Zrotation
								End Site
								{
									OFFSET 0.000000 11.579437 0.000000
								}
							}
						}
					}
				}
				JOINT LeftShoulder
				{
					OFFSET 5.101800 15.108002 -2.763700
					CHANNELS 3 Xrotation Yrotation Zrotation
					JOINT LeftArm
					{
						OFFSET 9.825497 2.506317 -1.597400
						CHANNELS 3 Xrotation Yrotation Zrotation
						JOINT LeftForeArm
						{
							OFFSET 21.966244 0.000000 0.000000
							CHANNELS 3 Xrotation Yrotation Zrotation
							JOINT LeftHand
							{
								OFFSET 33.879036 0.000000 0.000000
								CHANNELS 3 Xrotation Yrotation Zrotation
								JOINT LeftHandThumb1
								{
									OFFSET 6.715286 -2.359680 3.363841
									CHANNELS 3 Xrotation Yrotation Zrotation
									JOINT LeftHandThumb2
									{
										OFFSET 2.507072 -1.447464 1.447461
										CHANNELS 3 Xrotation Yrotation Zrotation
										JOINT LeftHandThumb3
										{
											OFFSET 2.898338 -1.673355 1.673357
											CHANNELS 3 Xrotation Yrotation Zrotation
											End Site
											{
												OFFSET -0.295959 3.727692 -0.131651
											}
										}
									}
								}
								JOINT LeftHandIndex1
								{
									OFFSET 14.190811 -0.254547 3.840278
									CHANNELS 3 Xrotation Yrotation Zrotation
									JOINT LeftHandIndex2
									{
										OFFSET 3.551727 0.000000 -0.000000
										CHANNELS 3 Xrotation Yrotation Zrotation
										JOINT LeftHandIndex3
										{
											OFFSET 2.894196 0.000000 0.000000
											CHANNELS 3 Xrotation Yrotation Zrotation
											End Site
											{
												OFFSET -1.000603 2.690872 0.366626
											}
										}
									}
								}
								JOINT LeftHandMiddle1
								{
									OFFSET 13.776489 0.000000 0.000000
									CHANNELS 3 Xrotation Yrotation Zrotation
									JOINT LeftHandMiddle2
									{
										OFFSET 3.438232 0.000000 0.000000
										CHANNELS 3 Xrotation Yrotation Zrotation
										JOINT LeftHandMiddle3
										{
											OFFSET 3.691551 0.000000 0.000000
											CHANNELS 3 Xrotation Yrotation Zrotation
											End Site
											{
												OFFSET -1.082298 3.499527 0.457670
											}
										}
									}
								}
								JOINT LeftHandRing1
								{
									OFFSET 13.966164 -0.268127 -3.067488
									CHANNELS 3 Xrotation Yrotation Zrotation
									JOINT LeftHandRing2
									{
										OFFSET 3.162567 0.000000 0.000000
										CHANNELS 3 Xrotation Yrotation Zrotation
										JOINT LeftHandRing3
										{
											OFFSET 3.324348 0.000000 0.000000
											CHANNELS 3 Xrotation Yrotation Zrotation
											End Site
											{
												OFFSET -0.861900 3.184998 0.405154
											}
										}
									}
								}
								JOINT LeftHandPinky1
								{
									OFFSET 13.131393 -0.168503 -5.746925
									CHANNELS 3 Xrotation Yrotation Zrotation
									JOINT LeftHandPinky2
									{
										OFFSET 2.849182 0.000000 0.000000
										CHANNELS 3 Xrotation Yrotation Zrotation
										JOINT LeftHandPinky3
										{
											OFFSET 2.805038 0.000000 0.000000
											CHANNELS 3 Xrotation Yrotation Zrotation
											End Site
											{
												OFFSET -0.882500 2.642609 0.325652
											}
										}
									}
								}
							}
							JOINT Left_Sleeve
							{
								OFFSET 6.592125 -0.646545 0.805568
								CHANNELS 3 Xrotation Yrotation Zrotation
								End Site
								{
									OFFSET -0.000179 20.275787 -0.000000
								}
							}
						}
					}
				}
				JOINT RightShoulder
				{
					OFFSET -5.731700 15.108002 -2.763700
					CHANNELS 3 Xrotation Yrotation Zrotation
					JOINT RightArm
					{
						OFFSET -9.825497 2.506317 -1.597400
						CHANNELS 3 Xrotation Yrotation Zrotation
						JOINT RightForeArm
						{
							OFFSET -21.966242 0.000000 0.000000
							CHANNELS 3 Xrotation Yrotation Zrotation
							JOINT RightHand
							{
								OFFSET -33.879032 0.000000 0.000000
								CHANNELS 3 Xrotation Yrotation Zrotation
								JOINT RightHandThumb1
								{
									OFFSET -6.715286 -2.359680 3.363841
									CHANNELS 3 Xrotation Yrotation Zrotation
									JOINT RightHandThumb2
									{
										OFFSET -2.507072 -1.447464 1.447461
										CHANNELS 3 Xrotation Yrotation Zrotation
										JOINT RightHandThumb3
										{
											OFFSET -2.898338 -1.673355 1.673357
											CHANNELS 3 Xrotation Yrotation Zrotation
											End Site
											{
												OFFSET 0.295959 3.727692 -0.131651
											}
										}
									}
								}
								JOINT RightHandIndex1
								{
									OFFSET -14.190811 -0.254547 3.840278
									CHANNELS 3 Xrotation Yrotation Zrotation
									JOINT RightHandIndex2
									{
										OFFSET -3.551727 0.000000 -0.000000
										CHANNELS 3 Xrotation Yrotation Zrotation
										JOINT RightHandIndex3
										{
											OFFSET -2.894196 0.000000 0.000000
											CHANNELS 3 Xrotation Yrotation Zrotation
											End Site
											{
												OFFSET 1.000603 2.690872 0.366626
											}
										}
									}
								}
								JOINT RightHandMiddle1
								{
									OFFSET -13.776489 0.000000 0.000000
									CHANNELS 3 Xrotation Yrotation Zrotation
									JOINT RightHandMiddle2
									{
										OFFSET -3.438232 0.000000 0.000000
										CHANNELS 3 Xrotation Yrotation Zrotation
										JOINT RightHandMiddle3
										{
											OFFSET -3.691551 0.000000 0.000000
											CHANNELS 3 Xrotation Yrotation Zrotation
											End Site
											{
												OFFSET 1.082298 3.499527 0.457670
											}
										}
									}
								}
								JOINT RightHandRing1
								{
									OFFSET -13.966164 -0.268127 -3.067488
									CHANNELS 3 Xrotation Yrotation Zrotation
									JOINT RightHandRing2
									{
										OFFSET -3.162567 0.000000 0.000000
										CHANNELS 3 Xrotation Yrotation Zrotation
										JOINT RightHandRing3
										{
											OFFSET -3.324348 0.000000 0.000000
											CHANNELS 3 Xrotation Yrotation Zrotation
											End Site
											{
												OFFSET 0.861900 3.184998 0.405154
											}
										}
									}
								}
								JOINT RightHandPinky1
								{
									OFFSET -13.131393 -0.168503 -5.746925
									CHANNELS 3 Xrotation Yrotation Zrotation
									JOINT RightHandPinky2
									{
										OFFSET -2.849182 0.000000 0.000000
										CHANNELS 3 Xrotation Yrotation Zrotation
										JOINT RightHandPinky3
										{
											OFFSET -2.805038 0.000000 0.000000
											CHANNELS 3 Xrotation Yrotation Zrotation
											End Site
											{
												OFFSET 0.882500 2.642609 0.325652
											}
										}
									}
								}
							}
							JOINT Right_Sleeve
							{
								OFFSET -6.592125 -0.646545 0.805568
								CHANNELS 3 Xrotation Yrotation Zrotation
								End Site
								{
									OFFSET 0.000179 20.275787 -0.000000
								}
							}
						}
					}
				}
				JOINT Bind_Right_JacketString
				{
					OFFSET -3.534800 11.969597 7.200700
					CHANNELS 3 Xrotation Yrotation Zrotation
					JOINT Bind_Right_JacketString1
					{
						OFFSET -0.319900 -6.102600 2.794100
						CHANNELS 3 Xrotation Yrotation Zrotation
						End Site
						{
							OFFSET 0.000000 6.719452 0.000000
						}
					}
				}
				JOINT Bind_Left_JacketString
				{
					OFFSET 2.904800 11.969597 7.200700
					CHANNELS 3 Xrotation Yrotation Zrotation
					JOINT Bind_Left_JacketString1
					{
						OFFSET 0.364800 -5.904503 3.186800
						CHANNELS 3 Xrotation Yrotation Zrotation
						End Site
						{
							OFFSET 0.000000 6.719513 0.000000
						}
					}
				}
				JOINT HairE
				{
					OFFSET 5.915200 17.612701 -11.592200
					CHANNELS 3 Xrotation Yrotation Zrotation
					JOINT HairE1
					{
						OFFSET 0.289200 -7.171898 -1.284500
						CHANNELS 3 Xrotation Yrotation Zrotation
						End Site
						{
							OFFSET 0.000000 7.291756 0.000000
						}
					}
				}
				JOINT HairF
				{
					OFFSET -0.864800 17.612701 -11.592200
					CHANNELS 3 Xrotation Yrotation Zrotation
					JOINT HairF1
					{
						OFFSET 0.000000 -14.087097 -2.127501
						CHANNELS 3 Xrotation Yrotation Zrotation
						End Site
						{
							OFFSET 0.000000 14.246841 0.000000
						}
					}
				}
				JOINT HairG
				{
					OFFSET -8.087700 17.612701 -11.592200
					CHANNELS 3 Xrotation Yrotation Zrotation
					JOINT HairG1
					{
						OFFSET -0.293600 -6.081398 -0.910100
						CHANNELS 3 Xrotation Yrotation Zrotation
						End Site
						{
							OFFSET 0.000000 6.156120 0.000000
						}
					}
				}
			}
		}
	}
	JOINT Pouch
	{
		OFFSET 0.000000 4.394501 10.847300
		CHANNELS 3 Xrotation Yrotation Zrotation
		End Site
		{
			OFFSET 0.000000 21.880577 0.000000
		}
	}
	JOINT Bag
	{
		OFFSET -13.229000 4.813004 -0.593300
		CHANNELS 3 Xrotation Yrotation Zrotation
		End Site
		{
			OFFSET 0.000000 21.880577 0.000000
		}
	}
	JOINT OccupyGuyFacialAnim_Joint
	{
		OFFSET 1.000000 -70.206398 -1.655000
		CHANNELS 3 Xrotation Yrotation Zrotation
		End Site
		{
			OFFSET 0.000000 21.880577 0.000000
		}
	}
}
MOTION
Frames: 4
Frame Time: 0.033333
-0.162831 65.939186 -124.872421 9.424602 -15.336478 2.024955 0.000000 -0.000000 -0.000000 -31.778063 12.224769 3.821103 47.276455 3.731590 3.014615 -25.358694 -0.336217 -2.220650 -0.000000 0.000000 -0.000000 -0.000002 0.000000 0.000000 -8.317272 -10.599515 -11.641776 43.471091 -1.189445 -2.741811 -22.935241 -7.442486 16.729452 -0.000001 0.000002 -0.000001 -0.000000 0.000001 -0.000000 7.513606 -6.109890 -1.410483 1.087758 0.522318 -0.562195 1.082937 0.519133 -0.662848 -0.069727 7.551858 -0.750013 -5.578984 3.620481 2.169984 -0.000001 -0.000000 0.000000 -0.000001 -0.000000 0.000000 -0.000001 -0.000000 0.000000 -0.000001 -0.000000 0.000000 -0.000001 0.000001 -0.000000 -0.000001 -0.000000 0.000000 -0.000001 0.000001 -0.000000 -0.000001 -0.000000 0.000000 -0.000001 -0.000000 0.000000 0.419152 -14.695391 -16.238307 1.991041 -7.822197 -37.613514 0.002298 -88.680547 0.002223 -122.212343 -2.794887 23.800942 -10.763397 -27.042944 5.887282 -2.744100 9.756719 -4.747530 -0.000000 -0.000000 0.000004 -3.991913 4.295422 -65.634129 3.687733 5.437737 -68.266689 -0.000002 -0.000001 0.000001 1.001151 6.815413 -70.310527 3.404905 5.316809 -65.249371 -0.000003 -0.000001 0.000000 1.416957 7.219648 -75.175999 2.791323 4.989679 -58.425957 0.000000 0.000001 0.000000 1.448877 7.325941 -76.908613 2.243456 4.609580 -51.885296 0.000001 0.000002 -0.000000 -0.000003 0.000002 0.000003 1.191586 15.348808 11.207534 9.473792 20.049535 39.886266 0.000063 101.764471 -0.000070 -36.518351 -17.957746 19.329109 20.473313 7.478535 18.838819 4.154597 -12.158547 -33.841118 -0.000001 -0.000002 -0.000003 -0.887341 1.427307 12.689015 1.917735 -3.767684 53.939271 0.000002 0.000000 -0.000001 0.773705 -5.201818 54.625189 5.563492 -4.568310 101.233922 0.000001 -0.000001 0.000001 6.943177 -8.547983 63.914656 2.909015 -4.317282 67.930835 0.000001 -0.000002 -0.000002 8.381874 -8.173830 73.994404 2.174128 -3.941254 57.751742 0.000001 0.000002 0.000003 -0.000000 -0.000001 0.000002 0.000001 0.000000 0.000000 0.000001 0.000000 0.000001 0.000001 0.000000 -0.000000 0.000001 0.000000 -0.000000 0.000001 0.000000 0.000000 0.000001 0.000000 0.000001 0.000001 0.000000 -0.000000 0.000001 0.000000 -0.000000 0.000001 0.000000 0.000000 0.000001 0.000000 0.000001 0.000000 -0.000000 -0.000000 0.000000 -0.000000 -0.000000 0.000000 -0.000000 -0.000000 
-1.000250 65.986298 -127.233223 8.954862 -15.403849 2.219148 -0.000000 0.000000 0.000000 -33.791145 11.770378 5.089360 47.286035 3.466017 2.856974 -22.495375 -0.314195 -2.967929 0.000000 -0.000000 -0.000000 0.000000 0.000000 -0.000000 -4.169334 -13.783558 -11.377225 34.727014 3.799759 -0.476844 -26.916468 -7.067367 12.247194 -0.000001 -0.000003 0.000001 -0.000001 0.000003 0.000000 6.939826 -5.558031 -1.545152 1.124754 0.696895 -0.660602 1.118420 0.695726 -0.740018 0.122625 7.546082 -0.678920 -5.005780 2.499480 2.261474 -0.000000 0.000001 -0.000000 -0.000000 0.000001 -0.000000 -0.000000 0.000001 0.000000 -0.000000 0.000001 -0.000000 -0.000000 -0.000000 0.000000 -0.000000 0.000001 -0.000000 -0.000000 -0.000000 0.000000 -0.000000 0.000001 -0.000000 -0.000000 0.000001 -0.000000 0.362294 -14.798506 -16.475632 3.385518 -6.785141 -37.478303 -0.003358 -88.306198 -0.003334 -123.244152 -3.344464 22.205486 -10.889153 -26.447925 5.746253 -2.508940 9.180202 -4.578251 0.000001 0.000001 -0.000002 -3.963021 4.292036 -65.529238 3.669697 5.430517 -68.076174 0.000000 0.000003 0.000000 1.091198 6.844021 -70.251132 3.398189 5.313713 -65.176814 0.000003 0.000002 -0.000001 1.620997 7.280748 -75.324480 2.743010 4.959759 -57.868778 0.000001 0.000001 -0.000002 1.754882 7.407360 -77.124181 2.209323 4.582700 -51.459338 -0.000004 -0.000001 0.000003 -0.000000 0.000000 -0.000001 1.079905 15.998579 11.367307 9.805565 20.568032 39.663455 0.000087 100.976560 -0.000095 -36.065100 -18.449743 19.796900 20.473337 7.478546 18.838809 4.154588 -12.158568 -33.841135 -0.000001 0.000000 0.000001 -0.887321 1.427313 12.689015 1.917730 -3.767679 53.939278 0.000002 -0.000000 0.000000 0.773727 -5.201793 54.625189 5.563496 -4.568311 101.233949 0.000000 -0.000001 0.000001 6.943190 -8.547978 63.914656 2.909007 -4.317286 67.930849 0.000001 0.000001 -0.000001 8.381901 -8.173812 73.994397 2.174135 -3.941263 57.751742 -0.000000 -0.000001 0.000002 -0.000000 0.000000 0.000001 -0.000002 -0.000000 0.000000 -0.000002 0.000002 -0.000000 -0.000002 -0.000000 -0.000000 -0.000002 -0.000000 -0.000000 -0.000002 -0.000000 0.000000 -0.000002 0.000002 -0.000000 -0.000002 -0.000000 -0.000000 -0.000002 -0.000000 -0.000000 -0.000002 -0.000000 0.000000 -0.000002 0.000002 -0.000000 -0.000000 0.000000 0.000000 -0.000000 0.000000 0.000000 -0.000000 0.000000 0.000000 
-1.860705 66.112892 -129.495438 8.035052 -15.231003 2.235158 -0.000000 -0.000001 0.000000 -36.042536 11.142654 6.569801 48.237296 2.917489 2.574005 -18.562212 -0.415070 -3.575318 -0.000000 0.000000 -0.000000 -0.000001 -0.000000 -0.000000 -2.257824 -15.066007 -9.693284 30.801059 4.414129 -0.084702 -29.083936 -6.612159 9.308706 -0.000000 0.000001 -0.000000 -0.000001 -0.000002 0.000000 6.469121 -4.856218 -1.661549 1.175275 0.816272 -0.735333 1.167898 0.816844 -0.791588 0.530858 7.416919 -0.600775 -4.304058 1.295076 2.226306 0.000001 0.000001 -0.000000 0.000001 0.000001 -0.000000 0.000001 0.000001 0.000000 0.000001 0.000001 -0.000000 0.000001 -0.000000 -0.000000 0.000001 0.000001 -0.000000 0.000001 -0.000000 -0.000000 0.000001 0.000001 -0.000000 0.000001 0.000001 -0.000000 0.304571 -14.901538 -16.712993 4.968251 -5.577006 -37.414776 -0.001149 -87.967830 -0.001136 -124.439435 -3.982408 20.493901 -11.014822 -25.852357 5.609406 -2.274325 8.605116 -4.403886 0.000001 0.000001 -0.000004 -3.934168 4.288736 -65.424360 3.651676 5.423290 -67.885646 0.000003 0.000002 -0.000002 1.181193 6.872819 -70.191737 3.391478 5.310625 -65.104243 0.000002 0.000002 0.000001 1.825346 7.340829 -75.473228 2.694982 4.929363 -57.311701 0.000005 0.000001 -0.000001 2.061499 7.486610 -77.340274 2.175408 4.555533 -51.033466 0.000003 -0.000001 0.000003 -0.000001 -0.000000 -0.000001 0.971025 16.708338 11.497088 10.097023 21.208714 39.525413 -0.000060 100.063344 0.000039 -35.551022 -19.071866 20.424964 20.473342 7.478540 18.838799 4.154583 -12.158561 -33.841115 0.000001 -0.000002 0.000003 -0.887333 1.427319 12.689013 1.917750 -3.767674 53.939295 -0.000000 -0.000001 0.000002 0.773723 -5.201797 54.625193 5.563490 -4.568308 101.233929 -0.000000 -0.000000 -0.000001 6.943175 -8.547977 63.914643 2.909003 -4.317286 67.930821 0.000000 -0.000003 0.000000 8.381890 -8.173821 73.994397 2.174125 -3.941251 57.751756 0.000000 0.000000 -0.000001 0.000001 0.000001 0.000001 0.000002 -0.000001 0.000000 0.000002 0.000001 -0.000000 0.000002 -0.000001 0.000000 0.000002 -0.000001 0.000000 0.000002 -0.000001 0.000000 0.000002 0.000001 -0.000000 0.000002 -0.000001 0.000000 0.000002 -0.000001 0.000000 0.000002 -0.000001 0.000000 0.000002 0.000001 -0.000000 -0.000000 -0.000001 0.000000 -0.000000 -0.000001 0.000000 -0.000000 -0.000001 0.000000 
-2.636557 66.376328 -131.634918 6.855626 -14.728786 2.128733 -0.000000 0.000001 -0.000000 -37.630060 10.592692 7.956086 48.370399 1.969393 2.121781 -13.920447 -0.643177 -3.846739 0.000000 0.000000 -0.000000 -0.000003 -0.000000 -0.000000 0.721948 -15.785407 -7.189187 25.412825 3.505393 -0.339432 -29.735468 -6.406410 7.484672 -0.000000 -0.000002 0.000000 -0.000000 -0.000004 -0.000000 6.138365 -3.762949 -1.650289 1.249333 0.851645 -0.751998 1.242226 0.853613 -0.798482 1.114859 7.193017 -0.515308 -3.380798 0.026341 2.089975 0.000001 0.000000 -0.000000 0.000001 0.000000 -0.000000 0.000001 0.000000 0.000000 0.000001 0.000000 -0.000000 0.000001 -0.000001 -0.000000 0.000001 0.000000 -0.000000 0.000001 -0.000001 -0.000000 0.000001 0.000000 -0.000000 0.000001 0.000000 -0.000000 0.245980 -15.004478 -16.950395 6.574256 -4.370710 -37.408495 -0.000161 -87.648983 -0.000047 -125.696272 -4.625862 18.779778 -11.140432 -25.256218 5.476739 -2.040158 8.031564 -4.224469 -0.000000 0.000001 -0.000000 -3.905328 4.285564 -65.319449 3.633662 5.415975 -67.695166 0.000000 0.000002 -0.000002 1.271100 6.901803 -70.132410 3.384750 5.307510 -65.031713 0.000004 0.000002 -0.000001 2.029997 7.399911 -75.622284 2.647254 4.898557 -56.754634 0.000001 0.000000 0.000000 2.368712 7.563658 -77.556935 2.141670 4.528159 -50.607624 -0.000001 -0.000001 0.000003 -0.000001 0.000001 0.000001 0.869408 17.409785 11.600455 10.351140 21.885596 39.435337 -0.000023 99.132095 0.000020 -35.025593 -19.722933 21.114514 20.473316 7.478529 18.838811 4.154612 -12.158534 -33.841101 -0.000000 0.000001 0.000001 -0.887330 1.427315 12.689012 1.917727 -3.767674 53.939278 -0.000003 -0.000001 0.000000 0.773709 -5.201810 54.625186 5.563491 -4.568307 101.233922 0.000003 -0.000000 -0.000001 6.943175 -8.547983 63.914643 2.909000 -4.317284 67.930835 -0.000001 0.000001 -0.000002 8.381895 -8.173822 73.994397 2.174125 -3.941242 57.751736 -0.000000 -0.000001 0.000000 -0.000001 -0.000000 0.000002 -0.000000 -0.000000 0.000000 -0.000000 -0.000001 0.000000 -0.000000 -0.000000 0.000000 -0.000000 -0.000000 0.000000 -0.000000 -0.000000 0.000000 -0.000000 -0.000001 0.000000 -0.000000 -0.000000 0.000000 -0.000000 -0.000000 0.000000 -0.000000 -0.000000 0.000000 -0.000000 -0.000001 0.000000 -0.000000 0.000001 -0.000000 -0.000000 0.000001 -0.000000 -0.000000 0.000001 -0.000000 
